<svg id="PDF" xmlns="http://www.w3.org/2000/svg" viewBox="0 0 248 336"><defs><style>.cls-1{fill:#fff;}.cls-2{fill:#e80723;}.cls-3{fill:none;stroke:#e80723;stroke-width:8.84px;}</style></defs><title>Artboard 1</title><polygon class="cls-1" points="7.25 328.88 7.25 7.12 167.95 7.12 240.74 82.6 240.74 328.88 7.25 328.88"/><path class="cls-2" d="M164.93,14.24l68.69,71.24V321.76H14.36V14.24H164.93M171,0H.13V336H247.86V79.73L171,0Z"/><polyline class="cls-2" points="247.17 86.92 163.79 86.92 163.79 3.54"/><path id="path4539" class="cls-3" d="M7,280.1c-1.83,35.4,106-14.85,183.62-124.82,25.21-37.33-8.06-38.11-20.17-8.57-38.7,94.41-15.24,192,9.82,180.74,31.83-9.93-17.81-56.11-60.45-64.19C99.19,259.37,9,243.32,7,280.1Z"/></svg>