<svg xmlns="http://www.w3.org/2000/svg" style="display: none;">
  
    <symbol id="icon-twitter-circled" viewBox="0 0 512 512">
      <path d="m256 10c68 0 126 24 174 72c48 48 72 106 72 174c0 68-24 125-72 174c-48 48-106 72-174 72c-68 0-125-24-174-72c-48-49-72-106-72-174c0-68 24-126 72-174c49-48 106-72 174-72m100 201c11-8 18-16 24-25c-11 4-20 7-28 8c10-7 18-15 22-27c-10 5-21 9-31 11c-10-9-21-14-36-14c-13 0-25 5-34 14c-9 10-14 21-14 34c0 1 0 2 1 5c0 3 0 5 0 6c-41-2-74-19-99-51c-5 8-7 16-7 25c0 17 7 30 22 40c-9 0-16-3-22-7c0 0 0 1 0 1c0 12 3 22 10 31c8 9 17 14 29 17c-6 1-10 2-13 2c-4 0-7-1-9-1c7 22 22 33 45 33c-17 14-37 21-60 21c0 0-12 0-12 0c24 14 48 21 74 21c42 0 75-14 100-42c26-28 38-60 38-96c0 0 0-6 0-6"/>
    </symbol>
  
    <symbol id="icon-linkedin-circled" viewBox="0 0 512 512">
      <path d="m256 10c68 0 126 24 174 72c48 48 72 106 72 174c0 68-24 125-72 174c-48 48-106 72-174 72c-68 0-125-24-174-72c-48-49-72-106-72-174c0-68 24-126 72-174c49-48 106-72 174-72m-60 347c0 0 0-159 0-159c0 0-50 0-50 0c0 0 0 159 0 159c0 0 50 0 50 0m-25-180c18 0 27-8 27-24c0-17-9-25-27-25c-7 0-14 2-19 7c-5 5-8 11-8 18c0 16 9 24 27 24m207 180c0 0 0-94 0-94c0-22-5-40-16-52c-11-11-24-17-41-17c-23 0-39 8-50 25c0 0-1 0-1 0c0 0-3-21-3-21c0 0-43 0-43 0c1 9 1 26 1 51c0 0 0 108 0 108c0 0 50 0 50 0c0 0 0-92 0-92c0-6 1-10 3-12c4-13 12-20 25-20c16 0 25 12 25 35c0 0 0 89 0 89c0 0 50 0 50 0"/>
    </symbol>
  
    <symbol id="icon-github-circled" viewBox="0 0 512 512">
      <path d="m256 254c5 0 13 0 22-1c8-1 15-1 20-1c6 0 11 1 17 2c6 1 11 4 15 7c9 9 13 19 13 31c0 22-7 36-22 43c-15 7-36 10-65 10c-29 0-50-3-65-10c-15-7-22-21-22-43c0-12 4-22 13-31c4-3 9-6 15-7c6-1 11-2 17-2c5 0 12 0 20 1c9 1 17 1 22 1m-41 65c5 0 9-2 12-7c3-4 4-10 4-16c0-16-5-24-16-24c-11 0-16 8-16 24c0 6 1 12 4 16c3 5 7 7 12 7m82 0c5 0 9-2 12-7c4-4 5-10 5-16c0-7-1-13-5-17c-3-4-7-7-12-7c-11 0-16 8-16 24c0 6 1 12 4 16c3 5 7 7 12 7m-41-309c68 0 126 24 174 72c48 48 72 106 72 174c0 68-24 125-72 174c-48 48-106 72-174 72c-68 0-125-24-174-72c-48-49-72-106-72-174c0-68 24-126 72-174c49-48 106-72 174-72m23 346c64 0 96-31 96-94c0-19-7-36-20-50c2-1 2-8 1-21c-1-13-4-25-9-36c-15 2-34 11-58 26c-7-2-18-3-33-3c-14 0-25 1-33 3c-10-7-20-12-30-17c-10-4-17-7-21-8c0 0-7-1-7-1c-5 11-8 23-9 36c-1 13-1 20 1 21c-13 14-20 31-20 50c0 63 32 94 96 94c0 0 23 0 23 0c0 0 23 0 23 0"/>
    </symbol>
  
    <symbol id="icon-facebook-circled" viewBox="0 0 512 512">
      <path d="m256 10c68 0 126 24 174 72c48 48 72 106 72 174c0 68-24 125-72 174c-48 48-106 72-174 72c-68 0-126-24-174-72c-48-49-72-106-72-174c0-68 24-126 72-174c48-48 106-72 174-72m58 169c0 0 0-40 0-40c0 0-36 0-36 0c-16 0-28 6-38 17c-11 11-16 25-16 42c0 0 0 22 0 22c0 0-39 0-39 0c0 0 0 38 0 38c0 0 39 0 39 0c0 0 0 114 0 114c0 0 44 0 44 0c0 0 0-114 0-114c0 0 46 0 46 0c0 0 0-38 0-38c0 0-46 0-46 0c0 0 0-26 0-26c0-10 3-15 10-15c0 0 36 0 36 0"/>
    </symbol>
  
    <symbol id="icon-vimeo-circled" viewBox="0 0 512 512">
      <path d="m256 10c68 0 126 24 174 72c48 48 72 106 72 174c0 68-24 125-72 174c-48 48-106 72-174 72c-68 0-125-24-174-72c-48-49-72-106-72-174c0-68 24-126 72-174c49-48 106-72 174-72m113 198c4-28-4-44-25-48c-20-5-39 2-56 20c-10 10-16 21-18 34c13-8 23-8 29 1c6 8 6 19-1 32c-15 28-26 43-33 43c-5 0-11-16-18-48c-2-5-3-12-4-21c-2-9-3-16-4-23c-2-6-4-13-7-20c-2-7-6-12-10-15c-4-3-9-4-15-2c-9 2-19 7-31 16c-11 9-21 18-29 26c0 0-10 12-10 12c0 0 9 12 9 12c2-1 4-2 6-4c2-1 5-3 11-5c5-2 9-2 10 1c2 3 8 22 19 58c11 36 17 56 20 62c5 10 11 17 19 22c9 5 19 5 30-1c19-12 40-32 64-61c24-29 38-59 44-91"/>
    </symbol>
  
    <symbol id="icon-dribbble-circled" viewBox="0 0 512 512">
      <path d="m263 255c-15 5-29 12-42 23c-13 10-22 18-28 26c-6 7-10 13-13 18c-16-20-24-42-24-66c0 0 0-2 0-2c36 0 70-5 102-14c0 0 7 14 7 14c0 0-2 1-2 1m59-76c-11 15-28 26-52 35c-9-16-20-35-36-56c5-2 12-2 22-2c25 0 46 8 66 23m-126 156c13-27 39-48 77-62c12 32 19 57 21 75c-12 6-25 8-38 8c-23 0-43-7-60-21m53-114c-32 8-62 12-90 12c6-31 24-54 53-68c11 14 23 32 37 56m46 47c4 0 10-1 19-1c11 0 24 2 41 5c-5 28-19 50-42 66c-2-19-8-42-18-70m-39-258c68 0 126 24 174 72c48 48 72 106 72 174c0 68-24 125-72 174c-48 48-106 72-174 72c-68 0-125-24-174-72c-48-49-72-106-72-174c0-68 24-126 72-174c49-48 106-72 174-72m0 366c33 0 62-12 86-36c23-23 35-51 35-84c0-33-12-62-35-86c-24-23-53-35-86-35c-33 0-62 12-85 35c-23 24-35 53-35 86c0 33 12 61 35 84c23 24 52 36 85 36m24-145c24-9 43-22 55-37c14 17 21 37 21 59c-16-3-31-4-46-4c-10 0-17 0-22 1c-1-1-1-2-1-2c0-2-1-2-1-2c-1-2-2-4-3-7c-2-3-3-6-3-8"/>
    </symbol>
  
    <symbol id="icon-cancel-circled" viewBox="0 0 512 512">
      <path d="m256 41c59 0 110 21 152 63c42 42 63 93 63 152c0 59-21 110-63 152c-42 42-93 63-152 63c-59 0-110-21-152-63c-42-42-63-93-63-152c0-59 21-110 63-152c42-42 93-63 152-63m44 215c0 0 79-79 79-79c0 0-44-44-44-44c0 0-79 78-79 78c0 0-78-78-78-78c0 0-45 44-45 44c0 0 79 79 79 79c0 0-79 78-79 78c0 0 45 44 45 44c0 0 78-78 78-78c0 0 79 78 79 78c0 0 44-44 44-44c0 0-79-78-79-78"/>
    </symbol>
  
    <symbol id="icon-menu" viewBox="0 0 512 512">
      <path d="m410 230c7 0 13 3 18 8c5 5 7 11 7 18c0 7-2 13-7 18c-6 5-12 8-18 8c0 0-308 0-308 0c-6 0-12-3-18-8c-5-5-7-11-7-18c0-7 2-13 7-18c5-5 11-8 18-8c0 0 308 0 308 0m-308-51c-6 0-12-2-18-7c-5-6-7-12-7-18c0-7 2-13 7-18c5-5 11-8 18-8c0 0 308 0 308 0c7 0 13 3 18 8c5 5 7 11 7 18c0 6-2 12-7 18c-6 5-12 7-18 7c0 0-308 0-308 0m308 154c7 0 13 2 18 7c5 6 7 12 7 18c0 7-2 13-7 18c-6 5-12 8-18 8c0 0-308 0-308 0c-6 0-12-3-18-8c-5-5-7-11-7-18c0-6 2-12 7-18c5-5 11-7 18-7c0 0 308 0 308 0"/>
    </symbol>
  
    <symbol id="icon-youtube-play" viewBox="0 0 512 512">
      <path d="m366 256c0-7-3-12-9-15l-146-92c-6-4-12-4-19 0c-6 3-9 8-9 16l0 182c0 8 3 13 9 16c3 2 6 3 9 3c4 0 7-1 10-3l146-92c6-3 9-8 9-15z m146 0c0 18 0 33 0 43c0 10-1 23-3 39c-1 16-3 30-6 42c-3 14-10 26-20 35c-10 10-22 15-35 17c-43 4-106 7-192 7c-86 0-149-3-192-7c-13-2-25-7-35-17c-10-9-17-21-20-35c-3-12-5-26-6-42c-2-16-3-29-3-39c0-10 0-25 0-43c0-18 0-33 0-43c0-10 1-23 3-39c1-16 3-30 6-42c3-14 10-26 20-35c10-10 22-15 35-17c43-4 106-7 192-7c86 0 149 3 192 7c13 2 25 7 35 17c10 9 17 21 20 35c3 12 5 26 6 42c2 16 3 29 3 39c0 10 0 25 0 43z"/>
    </symbol>
  
    <symbol id="icon-drupal" viewBox="0 0 512 512">
      <path d="m357 111c-24-14-46-20-68-35c-14-9-33-31-49-50c-4 30-13 43-24 52c-22 17-37 23-56 33c-17 9-106 62-106 177c0 114 96 198 204 198c107 0 200-77 200-195c0-118-87-171-101-180z m1 331c-2 2-22 16-46 18c-24 2-57 4-76-14c-4-3-3-7 0-9c2-2 4-3 6-3c3 0 2 0 4 1c9 7 22 12 51 12c28 0 48-8 57-14c4-3 6-1 6 1c1 2 2 5-2 8z m-77-38c5-4 13-11 21-14c7-4 11-3 19-3c7 0 14 0 20 4c5 4 8 11 10 16c2 4 0 7-4 9c-3 2-3 1-6-5c-4-6-6-12-22-12c-15 0-20 6-28 12c-7 6-10 8-13 5c-2-4-2-7 3-12z m161-84c0 13-4 38-15 54c-11 15-17 21-30 20c-16-1-48-51-69-52c-25-1-81 54-126 54c-26 0-34-4-43-10c-14-9-20-23-20-43c1-35 33-67 74-67c52-1 88 51 115 51c22-1 65-44 86-44c22 0 28 23 28 37z"/>
    </symbol>
  
    <symbol id="icon-bolt" viewBox="0 0 512 512">
      <path d="m381 162c3 4 4 8 2 12l-154 331c-3 5-7 7-12 7-1 0-3 0-4-1-4-1-6-2-8-5-1-3-2-6-1-9l56-230-116 28c0 1-2 1-3 1-4 0-7-1-9-3-3-3-5-7-4-12l58-235c0-3 2-5 4-7 3-2 5-2 8-2l94 0c4 0 7 1 9 3 3 3 4 5 4 9 0 1-1 3-2 5l-48 132 113-28c1 0 2-1 3-1 4 0 7 2 10 5z"/>
    </symbol>
  
</svg>
